<svg width="25" height="25" viewBox="0 0 25 25" fill="none" xmlns="http://www.w3.org/2000/svg">
<mask id="mask0_2_5959" style="mask-type:alpha" maskUnits="userSpaceOnUse" x="3" y="5" width="19" height="15">
<path fill-rule="evenodd" clip-rule="evenodd" d="M3.25 6.5C3.25 5.67 3.92 5 4.75 5C5.58 5 6.25 5.67 6.25 6.5C6.25 7.33 5.58 8 4.75 8C3.92 8 3.25 7.33 3.25 6.5ZM3.25 12.5C3.25 11.67 3.92 11 4.75 11C5.58 11 6.25 11.67 6.25 12.5C6.25 13.33 5.58 14 4.75 14C3.92 14 3.25 13.33 3.25 12.5ZM4.75 17C3.92 17 3.25 17.68 3.25 18.5C3.25 19.32 3.93 20 4.75 20C5.57 20 6.25 19.32 6.25 18.5C6.25 17.68 5.58 17 4.75 17ZM20.75 19.5H8.75C8.2 19.5 7.75 19.05 7.75 18.5C7.75 17.95 8.2 17.5 8.75 17.5H20.75C21.3 17.5 21.75 17.95 21.75 18.5C21.75 19.05 21.3 19.5 20.75 19.5ZM8.75 13.5H20.75C21.3 13.5 21.75 13.05 21.75 12.5C21.75 11.95 21.3 11.5 20.75 11.5H8.75C8.2 11.5 7.75 11.95 7.75 12.5C7.75 13.05 8.2 13.5 8.75 13.5ZM8.75 7.5C8.2 7.5 7.75 7.05 7.75 6.5C7.75 5.95 8.2 5.5 8.75 5.5H20.75C21.3 5.5 21.75 5.95 21.75 6.5C21.75 7.05 21.3 7.5 20.75 7.5H8.75Z" fill="black"/>
</mask>
<g mask="url(#mask0_2_5959)">
<rect x="0.5" y="0.5" width="24" height="24" fill="url(#paint0_linear_2_5959)"/>
</g>
<defs>
<linearGradient id="paint0_linear_2_5959" x1="24.5" y1="24.5583" x2="0.5" y2="0.558302" gradientUnits="userSpaceOnUse">
<stop stop-color="#2972FE"/>
<stop offset="1" stop-color="#6499FF"/>
</linearGradient>
</defs>
</svg>
